<?xml version="1.0" encoding="utf-8"?>
<!-- Generator: Adobe Illustrator 24.2.0, SVG Export Plug-In . SVG Version: 6.00 Build 0)  -->
<svg version="1.1" id="Ebene_1" xmlns="http://www.w3.org/2000/svg" xmlns:xlink="http://www.w3.org/1999/xlink" x="0px" y="0px"
	 width="10548.6px" height="4219.5px" viewBox="0 0 10548.6 4219.5" enable-background="new 0 0 10548.6 4219.5"
	 xml:space="preserve">
<g id="Claim">
</g>
<g>
	<g>
		<path fill="#063773" d="M787.374,3091.137h-0.437c-169.716,0-345.557-3.937-461.034-53.365
			c-59.926-25.37-101.48-59.488-130.787-107.166C162.747,2878.116,147,2809.88,147,2722.835c0-66.487,9.623-144.347,27.994-232.267
			c4.374-20.121,104.542-488.154,111.103-513.086c26.682-97.543,59.926-178.027,102.355-245.389
			c73.048-115.915,170.591-190.712,306.627-235.328c113.29-36.743,257.637-53.365,467.158-53.365h1.75
			c110.228,0,200.773,7.873,276.883,23.62c89.67,18.809,158.344,49.865,203.835,91.419c34.118,31.494,55.989,69.549,65.175,113.728
			c4.811,22.308,6.999,47.241,6.999,73.923c0,62.113-12.685,127.287-22.746,179.34c-1.312,7.873-3.062,14.872-4.374,22.308
			l-0.437,2.187h-405.92l0.437-3.062c0,0,1.312-12.248,1.75-17.934c0-0.438,1.75-16.622,1.75-40.242
			c0-35.431-16.622-62.988-50.302-84.421c-26.682-15.309-61.238-20.558-94.044-24.495c-34.993-4.374-74.36-4.812-111.541-4.812
			c-68.237,0-119.851,5.249-162.28,17.059c-33.681,9.186-62.113,22.746-85.733,40.679c-33.681,25.37-59.926,62.113-80.047,111.978
			c-18.809,46.366-32.369,101.917-47.241,170.591l-54.677,262.448c-17.934,84.421-30.619,148.283-30.619,203.397
			c0,31.931,4.374,56.864,13.56,79.172c14.435,35.43,45.054,62.988,86.608,77.86c39.805,14.435,90.545,20.996,164.03,20.996
			c48.99,0,89.232-0.875,125.975-5.249c63.425-7.436,108.916-26.682,143.034-59.926c37.18-35.868,62.113-89.232,78.734-167.529
			l5.686-26.682h401.546v2.625c0,3.062-22.746,108.479-34.556,150.907c-12.248,44.179-25.37,81.359-40.679,114.603
			c-38.93,84.858-93.169,150.47-171.029,206.022c-75.235,52.49-155.282,84.858-251.95,101.917
			c-83.109,14.435-168.404,15.747-262.886,15.747C828.928,3091.574,792.185,3091.137,787.374,3091.137z"/>
	</g>
	<g>
		<path fill="#063773" d="M5285.298,3091.137L5285.298,3091.137c-170.154,0-345.994-3.937-461.472-53.365
			c-59.925-25.37-101.479-59.488-130.787-107.166c-32.369-52.49-48.116-120.726-48.116-207.771
			c0-66.487,9.623-144.347,27.995-232.267c4.375-20.121,104.542-488.154,111.104-513.086
			c26.245-97.543,59.925-178.027,102.354-245.389c73.048-115.915,170.591-190.712,306.627-235.328
			c113.291-36.743,257.637-53.365,467.158-53.365h1.75c110.228,0,200.773,7.873,276.883,23.62
			c89.67,18.809,158.343,49.865,203.834,91.419c34.119,31.494,55.989,69.549,65.175,113.728c4.812,22.308,6.999,47.241,6.999,73.923
			c0,62.113-12.685,127.287-22.745,179.777c-1.312,7.436-3.062,14.872-4.375,22.308l-0.437,2.187h-405.92l0.438-3.062
			c0,0,1.312-12.247,1.75-17.934c0-0.437,1.75-16.622,1.75-40.242c0-35.431-16.622-62.988-50.303-84.421
			c-26.682-15.31-61.238-20.558-94.044-24.495c-34.993-4.374-74.36-4.812-111.54-4.812c-68.237,0-119.852,5.249-162.281,17.059
			c-33.681,9.186-61.675,22.746-85.733,40.679c-33.681,25.37-59.925,62.113-80.047,111.978
			c-18.809,46.366-32.369,101.917-47.241,170.591l-55.551,261.573c-17.934,84.421-30.619,148.283-30.619,203.397
			c0,31.931,4.374,56.864,13.56,79.172c14.435,35.43,45.054,62.988,86.608,77.86c39.805,14.435,90.544,20.996,164.03,20.996
			c48.99,0,89.232-0.875,125.975-5.249c63.425-7.436,108.916-26.682,143.034-59.926c37.18-35.868,62.112-89.232,78.734-167.529
			l5.687-26.682h401.546v2.624c0,3.062-22.745,108.479-34.556,150.908c-12.248,44.179-25.37,81.359-40.68,114.603
			c-38.93,85.296-93.169,150.47-171.029,206.022c-75.235,52.49-155.282,84.858-251.95,101.917
			C5505.754,3089.825,5290.11,3091.137,5285.298,3091.137z"/>
	</g>
	<g>
		<path fill="#063773" d="M4413.97,3078.015H3246.075l0.875-3.062l326.748-1537.072c5.686-28.432,16.184-47.678,33.243-60.8
			c17.497-13.56,41.554-20.121,73.486-20.121h985.493c24.495,0,41.992,5.686,52.49,16.184c7.874,8.311,12.248,20.121,12.248,34.556
			v1.312c0,6.124-0.875,11.81-2.187,17.934l-50.74,239.703h-762.849l-66.049,318h716.046l-65.174,299.628h-716.046l-81.359,383.612
			h778.596L4413.97,3078.015z"/>
	</g>
	<g>
		<path fill="#063773" d="M6508.307,3078.015h-389.298l0.875-3.062l325.436-1531.385c7.874-33.244,20.121-55.989,38.493-69.986
			c14.435-10.935,32.806-16.184,56.426-16.184h230.517c24.932,0,43.304,5.686,55.114,17.059c9.186,8.748,13.997,21.871,13.997,37.18
			c0,4.812-0.437,9.623-1.312,14.435L6508.307,3078.015z"/>
	</g>
	<g>
		<path fill="#063773" d="M7580.407,3078.015h-490.778l-0.875-1.75l-363.491-840.709l1.312-1.312l628.563-682.365
			c38.93-42.429,61.675-63.862,82.234-76.547c21.871-13.56,41.117-18.371,72.61-18.371h316.688c14.872,0,24.058,4.812,29.307,9.186
			c3.062,2.625,5.249,5.249,6.561,7.873c0.875,1.75,1.75,3.937,1.75,6.561h0.437l-0.437,5.249
			c-0.438,6.561-3.937,17.497-17.06,31.931l-678.428,729.168L7580.407,3078.015z"/>
	</g>
	<g>
		<path fill="#063773" d="M2656.88,3078.015h-3.062l0.875-3.062l138.223-654.808h-641.686l-139.972,657.87h-389.298l0.875-3.062
			c13.122-62.113,322.374-1522.199,324.561-1530.51c11.373-48.115,30.619-64.737,45.928-73.485
			c16.622-9.623,39.805-13.997,72.611-13.997h210.396c10.935,0,28.869,4.812,42.429,14.435c7.436,5.249,13.123,11.373,16.622,17.934
			c4.374,7.873,6.561,16.622,6.561,26.682c0,4.374-0.437,9.186-1.312,13.997c-1.75,9.186-108.479,508.275-118.977,557.702h642.123
			c52.052-246.264,114.603-539.768,115.477-543.268c11.373-48.115,30.619-64.737,45.928-73.485
			c16.622-9.623,39.804-13.997,72.611-13.997h210.396c10.935,0,28.869,4.812,42.429,14.435c7.436,5.249,13.122,11.373,16.622,17.934
			c4.374,7.873,6.561,16.622,6.561,26.682c0,4.374-0.437,9.186-1.312,13.997c-1.75,9.623-315.375,1482.832-328.935,1545.82
			l-0.437,2.187L2656.88,3078.015z"/>
	</g>
	<g>
		<path fill="#063773" d="M8728.618,1773.647c30.181,7.873,53.802,22.745,66.486,47.678l0,0
			c8.311,16.622,12.248,35.868,12.248,59.051l0,0c0,23.62-3.937,51.177-10.497,83.546l0,0
			c-9.187,42.429-17.935,77.422-31.494,107.604l0,0c-13.561,30.182-31.932,55.114-58.613,76.11l0,0
			c-53.364,41.992-136.473,67.362-283.881,100.605l0,0c-195.087,43.304-329.373,79.172-424.291,126.413l0,0
			c-94.918,47.24-150.033,103.667-191.587,192.899l0,0c-27.557,59.488-48.553,133.849-68.674,227.893l0,0l-55.114,279.945h1262.813
			l59.051-283.444h-878.764c0,0,13.561-68.237,24.933-93.169l0,0c14.435-32.369,33.244-56.427,57.738-74.36l0,0
			c24.495-17.934,54.239-29.744,90.107-39.804l0,0c72.174-20.121,171.904-33.681,318.438-70.861l0,0
			c180.652-46.803,302.69-97.981,388.86-180.652l0,0c86.17-82.671,138.66-199.023,177.152-381.425l0,0
			c14.435-67.362,22.309-133.849,22.309-184.151l0,0c0-72.173-13.997-127.725-38.93-170.154l0,0
			c-24.932-42.429-60.8-73.048-108.041-95.794l0,0c-93.605-45.053-231.391-55.552-394.547-55.552l0,0
			c-207.771,0-371.363,21.433-492.964,96.231l0,0c-121.602,74.36-206.022,209.959-253.263,430.852l0,0l-13.123,62.55h384.049
			l14.872-69.111c14.871-66.049,28.869-111.103,53.802-143.034l0,0c24.933-32.369,61.238-47.678,110.229-53.802l0,0
			c33.243-4.374,73.048-5.249,122.476-5.249l0,0c7.873,0,15.31,0,22.745,0l0,0
			C8660.819,1763.587,8698.438,1765.774,8728.618,1773.647L8728.618,1773.647z"/>
	</g>
	<g>
		<path fill="#063773" d="M9788.034,1617.49c-44.616,46.366-419.479,438.288-573.013,599.257
			c-30.618,32.806-63.425,69.111-77.859,99.293c-11.81,21.871-27.119,82.671-34.993,125.975
			c-16.185,90.545-28.432,173.216-35.868,206.896c-1.749,8.748-2.624,16.622-2.624,24.058c0,27.994,11.81,46.366,27.557,59.926
			c15.31,13.123,36.306,19.246,56.864,19.246c18.809,0,744.041,0,744.041,0l-68.674,323.249l391.485-37.18l60.8-286.506h139.973
			l60.8-286.506h-139.973c0,0,139.973-653.496,144.347-677.991c48.115-264.635-61.676-342.057-309.251-342.057
			C10108.658,1446.462,9965.624,1433.339,9788.034,1617.49z M9952.502,2466.073h-562.077l668.806-692.863h40.68L9952.502,2466.073z"
			/>
	</g>
	<g>
		<path fill="#063773" d="M8911.457,3980.399L8911.457,3980.399c-252.825,0-495.59-67.362-702.049-195.086
			c-202.96-125.1-321.062-272.946-377.05-356.492l-73.923,190.275c-6.561,17.497-24.933,28.432-44.616,25.37
			c-19.246-3.499-33.681-20.121-33.681-39.367l-3.937-373.114v-0.437c0-10.498,4.374-20.558,11.81-27.557
			c7.874-7.436,17.934-11.81,28.869-11.81h379.675h0.438c18.809,0.437,34.993,14.435,38.493,32.806
			c0.438,2.624,0.875,4.811,0.875,7.436c0,16.622-10.498,31.494-25.807,37.617l-185.026,71.736
			c162.281,144.784,496.902,377.488,966.685,377.488c40.241,0,80.921-1.75,121.163-5.249
			c198.148-16.622,398.046-65.612,578.261-140.847c157.906-66.05,297.003-150.033,403.295-243.64l-191.149-56.426
			c-17.059-4.812-29.307-20.559-29.307-38.492c0-1.312,0-2.625,0-3.937c1.749-19.246,17.496-34.556,36.742-36.305l370.489-33.681
			c1.749,0,3.062-0.437,3.937-0.437c9.623,0,18.809,3.499,25.807,9.186c8.311,6.999,13.561,17.059,14.435,27.557
			c30.619,364.365,30.619,364.365,30.619,365.677c0,17.934-12.248,34.118-29.744,38.93c-3.5,0.875-6.999,1.312-10.497,1.312
			c-15.748,0-29.745-8.748-36.743-22.308l-89.669-171.466c-71.736,97.106-196.837,234.016-392.798,352.993
			c-198.586,120.726-420.355,192.462-659.183,212.583l-24.058,2.187l0,0C8980.131,3979.087,8945.576,3980.399,8911.457,3980.399z"/>
	</g>
</g>
</svg>
