<svg width="334" height="83" viewBox="0 0 334 83" fill="none" xmlns="http://www.w3.org/2000/svg">
<path d="M21.3109 53.6392H21.2968C15.8412 53.6392 10.1886 53.5123 6.47647 51.919C4.55009 51.1013 3.2143 50.0015 2.2722 48.4647C1.23167 46.7727 0.725464 44.5732 0.725464 41.7674C0.725464 39.6243 1.0348 37.1146 1.62536 34.2806C1.76596 33.632 4.98596 18.5455 5.19687 17.7419C6.05459 14.5977 7.12325 12.0034 8.48717 9.83204C10.8354 6.09566 13.971 3.68467 18.344 2.24652C21.9858 1.06216 26.626 0.526367 33.3612 0.526367H33.4175C36.9609 0.526367 39.8715 0.780144 42.3181 1.28773C45.2007 1.89402 47.4083 2.89507 48.8706 4.23451C49.9674 5.24968 50.6704 6.47634 50.9657 7.9004C51.1204 8.61947 51.1907 9.42315 51.1907 10.2832C51.1907 12.2854 50.7829 14.3862 50.4595 16.064C50.4173 16.3178 50.3611 16.5434 50.3189 16.7831L50.3049 16.8536H37.2562L37.2702 16.7549C37.2702 16.7549 37.3124 16.3601 37.3265 16.1768C37.3265 16.1627 37.3827 15.641 37.3827 14.8797C37.3827 13.7376 36.8484 12.8493 35.7657 12.1585C34.908 11.665 33.7972 11.4958 32.7426 11.3689C31.6177 11.2279 30.3522 11.2138 29.157 11.2138C26.9635 11.2138 25.3043 11.383 23.9404 11.7636C22.8577 12.0597 21.9437 12.4968 21.1844 13.0749C20.1017 13.8927 19.258 15.077 18.6112 16.6844C18.0066 18.1789 17.5707 19.9695 17.0926 22.1832L15.335 30.6429C14.7585 33.3641 14.3507 35.4226 14.3507 37.1991C14.3507 38.2284 14.4913 39.0321 14.7866 39.7511C15.2506 40.8932 16.2349 41.7815 17.5707 42.2609C18.8502 42.7262 20.4813 42.9376 22.8436 42.9376C24.4184 42.9376 25.712 42.9094 26.8932 42.7684C28.932 42.5288 30.3944 41.9084 31.4911 40.8368C32.6863 39.6806 33.4878 37.9605 34.0221 35.4367L34.2049 34.5766H47.113V34.6613C47.113 34.76 46.3818 38.1579 46.0021 39.5256C45.6084 40.9496 45.1866 42.1481 44.6945 43.2197C43.443 45.9549 41.6995 48.0699 39.1966 49.8605C36.7781 51.5525 34.2049 52.5958 31.0974 53.1457C28.4258 53.611 25.6839 53.6533 22.6467 53.6533C22.6467 53.6533 21.4655 53.6392 21.3109 53.6392Z" fill="white"/>
<path d="M165.901 53.6392C160.431 53.6392 154.779 53.5123 151.066 51.919C149.14 51.1013 147.804 50.0015 146.862 48.4647C145.822 46.7727 145.315 44.5732 145.315 41.7674C145.315 39.6243 145.625 37.1146 146.215 34.2806C146.356 33.632 149.576 18.5455 149.787 17.7419C150.631 14.5977 151.713 12.0034 153.077 9.83204C155.425 6.09566 158.561 3.68467 162.934 2.24652C166.576 1.06216 171.216 0.526367 177.951 0.526367H178.007C181.551 0.526367 184.462 0.780144 186.908 1.28773C189.791 1.89402 191.998 2.89507 193.461 4.23451C194.557 5.24968 195.26 6.47634 195.556 7.9004C195.71 8.61947 195.781 9.42315 195.781 10.2832C195.781 12.2854 195.373 14.3862 195.05 16.0781C195.007 16.3178 194.951 16.5575 194.909 16.7972L194.895 16.8677H181.846L181.86 16.769C181.86 16.769 181.902 16.3742 181.916 16.1909C181.916 16.1768 181.973 15.6551 181.973 14.8937C181.973 13.7517 181.438 12.8634 180.356 12.1725C179.498 11.679 178.387 11.5099 177.333 11.383C176.208 11.242 174.942 11.2279 173.747 11.2279C171.553 11.2279 169.894 11.3971 168.53 11.7777C167.448 12.0738 166.548 12.5109 165.774 13.089C164.692 13.9067 163.848 15.0911 163.201 16.6985C162.597 18.193 162.161 19.9836 161.683 22.1972L159.897 30.6287C159.32 33.3499 158.913 35.4085 158.913 37.185C158.913 38.2143 159.053 39.0179 159.348 39.737C159.812 40.8791 160.797 41.7674 162.133 42.2467C163.412 42.712 165.043 42.9235 167.405 42.9235C168.98 42.9235 170.274 42.8953 171.455 42.7543C173.494 42.5146 174.956 41.8943 176.053 40.8227C177.248 39.6665 178.05 37.9464 178.584 35.4226L178.767 34.5625H191.675V34.6471C191.675 34.7458 190.944 38.1438 190.564 39.5114C190.17 40.9355 189.748 42.134 189.256 43.2055C188.005 45.9549 186.261 48.0558 183.758 49.8464C181.34 51.5384 178.767 52.5817 175.659 53.1316C172.988 53.5969 166.056 53.6392 165.901 53.6392Z" fill="white"/>
<path d="M137.891 53.2161H100.348L100.376 53.1174L110.88 3.57177C111.063 2.6553 111.4 2.03493 111.949 1.61196C112.511 1.17487 113.284 0.963379 114.311 0.963379H145.99C146.778 0.963379 147.34 1.14666 147.678 1.48505C147.931 1.75295 148.071 2.13363 148.071 2.59892V2.64121C148.071 2.83861 148.043 3.0219 148.001 3.2193L146.37 10.9458H121.848L119.724 21.1962H142.742L140.647 30.8543H117.629L115.014 43.2196H140.043L137.891 53.2161Z" fill="white"/>
<path d="M205.216 53.2162H192.701L192.729 53.1175L203.191 3.75513C203.444 2.68355 203.838 1.95039 204.428 1.49921C204.892 1.14674 205.483 0.977539 206.242 0.977539H213.652C214.454 0.977539 215.044 1.16082 215.424 1.52742C215.719 1.8094 215.874 2.2324 215.874 2.72587C215.874 2.88098 215.86 3.03606 215.832 3.19117L205.216 53.2162Z" fill="white"/>
<path d="M239.679 53.2161H223.903L223.875 53.1597L212.19 26.0605L212.232 26.0182L232.438 4.02295C233.689 2.6553 234.421 1.96443 235.081 1.55555C235.784 1.11845 236.403 0.963379 237.416 0.963379H247.596C248.074 0.963379 248.369 1.11849 248.538 1.25948C248.636 1.34409 248.707 1.42867 248.749 1.51325C248.777 1.56966 248.805 1.64016 248.805 1.72474H248.819L248.805 1.89393C248.791 2.10542 248.678 2.45793 248.257 2.92319L226.448 26.427L239.679 53.2161Z" fill="white"/>
<path d="M81.4079 53.2161H81.3095L81.3377 53.1174L85.781 32.0105H65.1534L60.6538 53.2161H48.1395L48.1676 53.1174C48.5894 51.1153 58.5306 4.05115 58.6009 3.78325C58.9665 2.23232 59.5852 1.69654 60.0773 1.41455C60.6116 1.10437 61.3569 0.963379 62.4115 0.963379H69.1748C69.5264 0.963379 70.1029 1.11849 70.5388 1.42867C70.7778 1.59787 70.9606 1.79527 71.0731 2.00675C71.2137 2.26053 71.284 2.54254 71.284 2.86681C71.284 3.0078 71.27 3.16292 71.2418 3.31799C71.1856 3.61409 67.7547 19.7016 67.4172 21.2948H88.0589C89.7321 13.3568 91.7429 3.89607 91.771 3.78325C92.1366 2.23232 92.7552 1.69654 93.2474 1.41455C93.7817 1.10437 94.5269 0.963379 95.5815 0.963379H102.345C102.696 0.963379 103.273 1.11849 103.709 1.42867C103.948 1.59787 104.131 1.79527 104.243 2.00675C104.384 2.26053 104.454 2.54254 104.454 2.86681C104.454 3.0078 104.44 3.16292 104.412 3.31799C104.356 3.62818 94.2738 51.1153 93.838 53.1456L93.8239 53.2161L81.4079 53.2161Z" fill="white"/>
<path d="M276.59 11.1716C277.56 11.4254 278.319 11.9047 278.727 12.7084C278.994 13.2442 279.121 13.8646 279.121 14.6119C279.121 15.3732 278.994 16.2615 278.783 17.3049C278.488 18.6725 278.207 19.8005 277.771 20.7734C277.335 21.7462 276.744 22.5499 275.887 23.2267C274.171 24.5802 271.5 25.398 266.761 26.4696C260.49 27.8654 256.173 29.0216 253.122 30.5443C250.071 32.0671 248.299 33.8859 246.963 36.7622C246.077 38.6797 245.402 41.0767 244.755 44.1081L242.984 53.1318H283.578L285.476 43.9953H257.228C257.228 43.9953 257.664 41.7957 258.029 40.9921C258.493 39.9487 259.098 39.1732 259.885 38.5952C260.673 38.0171 261.629 37.6364 262.782 37.3121C265.102 36.6636 268.308 36.2265 273.018 35.028C278.825 33.5194 282.748 31.8697 285.519 29.2049C288.289 26.5401 289.976 22.7896 291.213 16.9101C291.677 14.7388 291.93 12.5957 291.93 10.9743C291.93 8.64784 291.48 6.85719 290.679 5.48954C289.877 4.12189 288.724 3.13493 287.206 2.40174C284.197 0.949507 279.768 0.611084 274.523 0.611084C267.844 0.611084 262.585 1.30195 258.676 3.71297C254.767 6.10988 252.053 10.4808 250.535 17.601L250.113 19.6172H262.458L262.936 17.3895C263.414 15.2605 263.864 13.8082 264.666 12.779C265.467 11.7356 266.634 11.2421 268.209 11.0447C269.278 10.9037 270.558 10.8755 272.146 10.8755C272.4 10.8755 272.639 10.8755 272.878 10.8755C274.41 10.8473 275.62 10.9178 276.59 11.1716Z" fill="white"/>
<path d="M310.646 6.13794C309.211 7.63249 297.161 20.2656 292.226 25.4543C291.241 26.5117 290.187 27.682 289.723 28.6549C289.343 29.3598 288.851 31.3197 288.598 32.7155C288.078 35.6341 287.684 38.2989 287.445 39.3846C287.389 39.6665 287.36 39.9203 287.36 40.16C287.36 41.0624 287.74 41.6546 288.246 42.0917C288.738 42.5147 289.413 42.7121 290.074 42.7121C290.679 42.7121 313.992 42.7121 313.992 42.7121L311.785 53.1316L324.369 51.9331L326.324 42.698H330.823L332.778 33.4628H328.278C328.278 33.4628 332.778 12.3981 332.918 11.6086C334.465 3.07837 330.936 0.582764 322.977 0.582764C320.952 0.625054 316.354 0.202049 310.646 6.13794ZM315.933 33.491H297.864L319.364 11.1574H320.671L315.933 33.491Z" fill="white"/>
<path d="M282.467 82.3035C274.34 82.3035 266.536 80.1321 259.899 76.0151C253.375 71.9827 249.578 67.217 247.779 64.524L245.402 70.6573C245.191 71.2213 244.601 71.5738 243.968 71.4751C243.349 71.3623 242.885 70.8265 242.885 70.2061L242.759 58.1792V58.1652C242.759 57.8268 242.899 57.5025 243.138 57.2769C243.392 57.0372 243.715 56.8962 244.066 56.8962H256.271H256.286C256.89 56.9103 257.41 57.3615 257.523 57.9537C257.537 58.0382 257.551 58.1087 257.551 58.1934C257.551 58.7291 257.214 59.2085 256.721 59.4059L250.774 61.7182C255.99 66.3852 266.747 73.8861 281.849 73.8861C283.142 73.8861 284.45 73.8297 285.744 73.7169C292.113 73.1811 298.539 71.602 304.332 69.1769C309.408 67.0478 313.88 64.3407 317.297 61.3234L311.152 59.5046C310.604 59.3495 310.21 58.8419 310.21 58.2639C310.21 58.2216 310.21 58.1792 310.21 58.1369C310.266 57.5166 310.772 57.0231 311.391 56.9667L323.301 55.881C323.357 55.881 323.399 55.8669 323.427 55.8669C323.737 55.8669 324.032 55.9797 324.257 56.163C324.524 56.3886 324.693 56.7129 324.721 57.0513C325.705 68.7962 325.705 68.7962 325.705 68.8385C325.705 69.4165 325.311 69.9382 324.749 70.0933C324.636 70.1215 324.524 70.1356 324.412 70.1356C323.905 70.1356 323.455 69.8536 323.23 69.4166L320.348 63.8895C318.042 67.0196 314.02 71.4328 307.721 75.2679C301.337 79.1593 294.208 81.4716 286.531 82.1202L285.758 82.1907C284.675 82.2612 283.564 82.3035 282.467 82.3035Z" fill="white"/>
</svg>
